HIERARCHY
ROOT Hips
{
	OFFSET 0.000000 0.000000 0.000000
	CHANNELS 6 Xposition Yposition Zposition Zrotation Xrotation Yrotation
	JOINT Spine
	{
		OFFSET 0.000000 0.000000 0.100000
		CHANNELS 3 Zrotation Xrotation Yrotation
		JOINT Chest
		{
			OFFSET 0.000000 0.000000 0.150000
			CHANNELS 3 Zrotation Xrotation Yrotation
			JOINT Neck
			{
				OFFSET 0.000000 0.000000 0.100000
				CHANNELS 3 Zrotation Xrotation Yrotation
				JOINT Head
				{
					OFFSET 0.000000 0.000000 0.100000
					CHANNELS 3 Zrotation Xrotation Yrotation
					End Site
					{
						OFFSET 0.0 0.0 0.0
					}
				}
			}
			JOINT LeftShoulder
			{
				OFFSET -0.150000 0.000000 0.000000
				CHANNELS 3 Zrotation Xrotation Yrotation
				JOINT LeftArm
				{
					OFFSET -0.180000 0.000000 0.000000
					CHANNELS 3 Zrotation Xrotation Yrotation
					JOINT LeftForeArm
					{
						OFFSET -0.250000 0.000000 0.000000
						CHANNELS 3 Zrotation Xrotation Yrotation
						JOINT LeftHand
						{
							OFFSET -0.100000 0.000000 0.000000
							CHANNELS 3 Zrotation Xrotation Yrotation
							End Site
							{
								OFFSET 0.0 0.0 0.0
							}
						}
					}
				}
			}
			JOINT RightShoulder
			{
				OFFSET 0.150000 0.000000 0.000000
				CHANNELS 3 Zrotation Xrotation Yrotation
				JOINT RightArm
				{
					OFFSET 0.180000 0.000000 0.000000
					CHANNELS 3 Zrotation Xrotation Yrotation
					JOINT RightForeArm
					{
						OFFSET 0.250000 0.000000 0.000000
						CHANNELS 3 Zrotation Xrotation Yrotation
						JOINT RightHand
						{
							OFFSET 0.100000 0.000000 0.000000
							CHANNELS 3 Zrotation Xrotation Yrotation
							End Site
							{
								OFFSET 0.0 0.0 0.0
							}
						}
					}
				}
			}
		}
	}
	JOINT LeftUpLeg
	{
		OFFSET -0.100000 0.000000 -0.050000
		CHANNELS 3 Zrotation Xrotation Yrotation
		JOINT LeftLeg
		{
			OFFSET 0.000000 0.000000 -0.400000
			CHANNELS 3 Zrotation Xrotation Yrotation
			JOINT LeftFoot
			{
				OFFSET 0.000000 0.050000 -0.400000
				CHANNELS 3 Zrotation Xrotation Yrotation
				JOINT LeftToeBase
				{
					OFFSET 0.000000 0.100000 0.000000
					CHANNELS 3 Zrotation Xrotation Yrotation
					End Site
					{
						OFFSET 0.0 0.0 0.0
					}
				}
			}
		}
	}
	JOINT RightUpLeg
	{
		OFFSET 0.100000 0.000000 -0.050000
		CHANNELS 3 Zrotation Xrotation Yrotation
		JOINT RightLeg
		{
			OFFSET 0.000000 0.000000 -0.400000
			CHANNELS 3 Zrotation Xrotation Yrotation
			JOINT RightFoot
			{
				OFFSET 0.000000 0.050000 -0.400000
				CHANNELS 3 Zrotation Xrotation Yrotation
				JOINT RightToeBase
				{
					OFFSET 0.000000 0.100000 0.000000
					CHANNELS 3 Zrotation Xrotation Yrotation
					End Site
					{
						OFFSET 0.0 0.0 0.0
					}
				}
			}
		}
	}
}
MOTION
Frames: 13
Frame Time: 0.033333
0.089795 -0.003222 0.002783 0.000000 0.000000 0.000000 0.000000 -43.218942 -1.129761 0.000000 60.907877 -66.141287 0.000000 -79.826186 36.300087 0.000000 0.000000 0.000000 49.195383 0.000000 -63.673113 -30.956222 0.000000 -112.861779 -59.072622 0.000000 -113.743311 0.000000 0.000000 0.000000 55.900403 0.000000 -112.229363 -26.294673 0.000000 -76.960559 -47.740633 0.000000 -39.939335 0.000000 0.000000 0.000000 14.428221 168.086017 0.000000 25.000160 -164.886683 0.000000 -21.721095 143.695040 0.000000 0.000000 0.000000 0.000000 -16.782093 -172.560050 0.000000 -9.057559 -151.287560 0.000000 -49.239769 127.089142 0.000000 0.000000 0.000000 0.000000
0.086683 0.007731 0.002861 0.000000 0.000000 0.000000 0.000000 -42.758114 -0.834626 0.000000 69.359657 -62.316720 0.000000 -79.745165 44.907296 0.000000 0.000000 0.000000 49.750295 0.000000 -65.883734 -28.856469 0.000000 -123.112850 -57.402720 0.000000 -102.318627 0.000000 0.000000 0.000000 57.698254 0.000000 -115.153220 -26.596723 0.000000 -82.734549 -49.816036 0.000000 -44.970688 0.000000 0.000000 0.000000 13.684565 167.732248 0.000000 26.726927 -167.189977 0.000000 -26.554724 142.886679 0.000000 0.000000 0.000000 0.000000 -17.045156 -170.419436 0.000000 -7.508886 -153.337843 0.000000 -53.189969 130.622213 0.000000 0.000000 0.000000 0.000000
0.083142 0.018200 0.002891 0.000000 0.000000 0.000000 0.000000 -42.404223 -0.316905 0.000000 76.410904 -58.491942 0.000000 -79.720883 52.626388 0.000000 0.000000 0.000000 50.016667 0.000000 -67.355575 -27.058237 0.000000 -134.984434 -55.250048 0.000000 -95.011272 0.000000 0.000000 0.000000 59.260486 0.000000 -115.962296 -26.332717 0.000000 -88.155842 -51.238349 0.000000 -49.736902 0.000000 0.000000 0.000000 12.992717 167.448058 0.000000 28.662171 -169.333604 0.000000 -29.982500 142.960775 0.000000 0.000000 0.000000 0.000000 -16.599728 -167.910333 0.000000 -6.374432 -154.939498 0.000000 -56.512195 133.540074 0.000000 0.000000 0.000000 0.000000
0.079825 0.026572 0.002809 0.000000 0.000000 0.000000 0.000000 -42.160564 0.605898 0.000000 81.210987 -55.520444 0.000000 -79.960480 58.251931 0.000000 0.000000 0.000000 50.272291 0.000000 -67.486178 -23.482185 0.000000 -146.815482 -51.399648 0.000000 -95.647097 0.000000 0.000000 0.000000 60.200655 0.000000 -116.258770 -24.932365 0.000000 -91.474232 -51.354728 0.000000 -52.823806 0.000000 0.000000 0.000000 12.496532 167.214279 0.000000 30.179243 -171.083111 0.000000 -31.324649 143.287684 0.000000 0.000000 0.000000 0.000000 -15.718619 -165.691341 0.000000 -5.784543 -155.999091 0.000000 -58.679848 135.530035 0.000000 0.000000 0.000000 0.000000
0.077304 0.031887 0.002595 0.000000 0.000000 0.000000 0.000000 -42.100814 2.008525 0.000000 83.952911 -54.117329 0.000000 -80.612007 61.082108 0.000000 0.000000 0.000000 50.912345 0.000000 -65.219160 -17.485965 0.000000 -155.857478 -46.208831 0.000000 -105.337695 0.000000 0.000000 0.000000 60.596348 0.000000 -117.443447 -22.803549 0.000000 -92.997184 -50.202761 0.000000 -54.236596 0.000000 0.000000 0.000000 12.345172 167.030646 0.000000 30.905152 -172.115166 0.000000 -31.300493 143.242914 0.000000 0.000000 0.000000 0.000000 -14.805416 -164.689823 0.000000 -5.659467 -156.544758 0.000000 -59.580224 135.999682 0.000000 0.000000 0.000000 0.000000
0.075952 0.033916 0.002276 0.000000 0.000000 0.000000 0.000000 -42.252919 3.667787 0.000000 85.148594 -54.526994 0.000000 -81.663049 60.962586 0.000000 0.000000 0.000000 51.280874 0.000000 -61.151147 -10.117877 0.000000 -160.775393 -40.279007 0.000000 -120.550815 0.000000 0.000000 0.000000 60.652633 0.000000 -119.672888 -20.229127 0.000000 -92.903907 -48.314391 0.000000 -54.039703 0.000000 0.000000 0.000000 12.551212 166.891274 0.000000 30.759067 -172.246476 0.000000 -29.696204 143.242188 0.000000 0.000000 0.000000 0.000000 -13.879485 -164.877934 0.000000 -5.854694 -156.529131 0.000000 -59.514653 135.101858 0.000000 0.000000 0.000000 0.000000
0.075697 0.033424 0.001846 0.000000 0.000000 0.000000 0.000000 -42.743144 5.412674 0.000000 85.161366 -56.680375 0.000000 -82.769662 58.349295 0.000000 0.000000 0.000000 51.297004 0.000000 -56.132234 -3.551665 0.000000 -160.986120 -35.148308 0.000000 -134.314919 0.000000 0.000000 0.000000 60.194794 0.000000 -121.822520 -17.467241 0.000000 -90.841657 -45.381694 0.000000 -51.178527 0.000000 0.000000 0.000000 12.938657 166.765273 0.000000 29.921817 -171.640041 0.000000 -26.649925 141.954166 0.000000 0.000000 0.000000 0.000000 -13.053391 -165.567214 0.000000 -6.153846 -156.174442 0.000000 -58.450991 131.859592 0.000000 0.000000 0.000000 0.000000
0.076215 0.031144 0.001374 0.000000 0.000000 0.000000 0.000000 -43.366863 6.906852 0.000000 84.294408 -59.964796 0.000000 -83.938224 54.043477 0.000000 0.000000 0.000000 51.244340 0.000000 -51.884290 0.179492 0.000000 -156.446003 -33.199819 0.000000 -160.936166 0.000000 0.000000 0.000000 59.617444 0.000000 -121.957741 -15.968532 0.000000 -86.377430 -43.320778 0.000000 -47.312560 0.000000 0.000000 0.000000 13.648416 166.702315 0.000000 28.553486 -171.125445 0.000000 -22.463816 139.577927 0.000000 0.000000 0.000000 0.000000 -12.183788 -165.947142 0.000000 -6.526510 -155.242129 0.000000 -57.276033 128.170988 0.000000 0.000000 0.000000 0.000000
0.077388 0.026669 0.000924 0.000000 0.000000 0.000000 0.000000 -43.966365 7.669537 0.000000 81.152301 -64.060301 0.000000 -84.817856 48.263031 0.000000 0.000000 0.000000 50.867850 0.000000 -49.210920 -0.538488 0.000000 -147.854662 -34.731920 0.000000 -156.974878 0.000000 0.000000 0.000000 58.746454 0.000000 -117.689096 -16.883792 0.000000 -80.730910 -42.909779 0.000000 -44.045445 0.000000 0.000000 0.000000 14.517997 166.656896 0.000000 27.038041 -170.940424 0.000000 -18.019591 136.557190 0.000000 0.000000 0.000000 0.000000 -11.235517 -165.644465 0.000000 -7.097031 -153.950562 0.000000 -56.126116 124.962163 0.000000 0.000000 0.000000 0.000000
0.078917 0.020008 0.000588 0.000000 0.000000 0.000000 0.000000 -44.367934 7.312192 0.000000 74.980343 -67.349070 0.000000 -84.628830 41.798869 0.000000 0.000000 0.000000 50.043834 0.000000 -48.411453 -6.089726 0.000000 -137.312360 -39.712003 0.000000 -154.728839 0.000000 0.000000 0.000000 57.388821 0.000000 -110.024301 -20.054181 0.000000 -74.422376 -44.360578 0.000000 -40.166464 0.000000 0.000000 0.000000 15.336932 166.701718 0.000000 25.660265 -170.922360 0.000000 -13.862700 134.147553 0.000000 0.000000 0.000000 0.000000 -10.454338 -165.278710 0.000000 -7.935597 -152.117311 0.000000 -54.897798 122.260384 0.000000 0.000000 0.000000 0.000000
0.080694 0.011511 0.000440 0.000000 0.000000 0.000000 0.000000 -44.605331 5.867338 0.000000 66.508096 -69.494599 0.000000 -83.776685 34.538384 0.000000 0.000000 0.000000 49.164025 0.000000 -49.590781 -15.524020 0.000000 -125.767543 -47.203857 0.000000 -153.137066 0.000000 0.000000 0.000000 55.768130 0.000000 -100.442790 -24.199470 0.000000 -68.673997 -46.561319 0.000000 -36.517477 0.000000 0.000000 0.000000 15.955368 166.797177 0.000000 24.553587 -170.716249 0.000000 -10.840429 133.546399 0.000000 0.000000 0.000000 0.000000 -9.735049 -165.023826 0.000000 -9.114932 -149.872153 0.000000 -53.708955 120.061897 0.000000 0.000000 0.000000 0.000000
0.082466 0.002285 0.000494 0.000000 0.000000 0.000000 0.000000 -44.645277 3.699589 0.000000 57.068459 -70.637899 0.000000 -82.617834 27.516860 0.000000 0.000000 0.000000 48.074042 0.000000 -52.485274 -26.005082 0.000000 -115.359299 -54.757262 0.000000 -152.153972 0.000000 0.000000 0.000000 54.161944 0.000000 -91.879984 -28.163787 0.000000 -63.412177 -48.647473 0.000000 -32.770320 0.000000 0.000000 0.000000 16.137013 166.921992 0.000000 23.836123 -170.585326 0.000000 -9.476054 133.919210 0.000000 0.000000 0.000000 0.000000 -9.184357 -164.708875 0.000000 -10.682688 -147.888253 0.000000 -52.378109 118.677864 0.000000 0.000000 0.000000 0.000000
0.084211 -0.006378 0.000687 0.000000 0.000000 0.000000 0.000000 -44.497148 1.371173 0.000000 48.484369 -70.806302 0.000000 -81.483246 21.883274 0.000000 0.000000 0.000000 47.626745 0.000000 -55.517757 -34.662686 0.000000 -106.396980 -60.975954 0.000000 -149.365213 0.000000 0.000000 0.000000 52.803331 0.000000 -86.022123 -31.360242 0.000000 -59.669324 -50.171048 0.000000 -30.106199 0.000000 0.000000 0.000000 16.004211 167.085510 0.000000 23.170437 -170.057160 0.000000 -10.606299 134.908895 0.000000 0.000000 0.000000 0.000000 -8.983946 -165.183072 0.000000 -12.562278 -146.320609 0.000000 -50.132733 118.056716 0.000000 0.000000 0.000000 0.000000
